<svg id="Layer_1_1_" enable-background="new 0 0 64 64" height="512" viewBox="0 0 64 64" width="512" xmlns="http://www.w3.org/2000/svg"><path d="m3 43h6.063c-1.3 2.023-2.063 4.422-2.063 7v4c0 .552.448 1 1 1h6.069c.495 3.94 3.859 7 7.931 7s7.436-3.06 7.931-7h6.069 9.062c.494 3.941 3.866 7 7.938 7s7.436-3.06 7.931-7h.069c.552 0 1-.448 1-1v-6.481c0-4.426-2.229-8.487-5.963-10.863-2.992-1.904-4.82-5.093-5.001-8.608 1.374 1.205 3.241 1.952 4.964 1.952.552 0 1-.448 1-1v-10c0-.552-.448-1-1-1-2.56 0-5.442 1.643-6.538 4h-3.462-5c-.552 0-1 .448-1 1v4c0 .552.448 1 1 1h4v21h-8.051c-.323-4.215-2.66-7.865-6.053-10h6.104c.552 0 1-.448 1-1v-23c0-.552-.448-1-1-1h-34c-.552 0-1 .448-1 1v23 4c0 .552.448 1 1 1zm50 17c-2.967 0-5.431-2.167-5.91-5h2.052c.447 1.72 2 3 3.858 3s3.411-1.28 3.858-3h2.052c-.479 2.833-2.943 5-5.91 5zm-1.722-5h3.444c-.347.595-.985 1-1.722 1s-1.375-.405-1.722-1zm3.722-34.888v7.776c-1.99-.43-4-2.046-4-3.888s2.01-3.458 4-3.888zm-8 3.888h2v3.481c0 4.396 2.203 8.428 5.891 10.81-3.389.929-5.891 4.029-5.891 7.709h2c0-3.301 2.679-5.987 5.978-5.999 1.92 1.998 3.022 4.666 3.022 7.518v5.481h-13zm-5 2v-2h3v2zm3 27h-8v-2h8zm-41-12v-2h9.103c-.901.567-1.728 1.236-2.463 2zm27 12h-18v-1c0-4.962 4.038-9 9-9s9 4.038 9 9zm-7.278 2c-.347.595-.985 1-1.722 1s-1.375-.405-1.722-1zm-1.722 5c-2.967 0-5.431-2.167-5.91-5h2.052c.447 1.72 2 3 3.858 3s3.411-1.28 3.858-3h2.052c-.479 2.833-2.943 5-5.91 5zm13-10v3h-2v-1c0-6.065-4.935-11-11-11s-11 4.935-11 11v1h-2v-3c0-6.065 4.935-11 11-11h4c6.065 0 11 4.935 11 11zm1-34v21h-12-4-16v-21z"/><path d="m33 33h-2v-1c0-5.728-4.402-10.442-10-10.949v-2.051h-2v2.051c-5.598.507-10 5.221-10 10.949v1h-2v2h26zm-22-1c0-4.962 4.038-9 9-9s9 4.038 9 9v1h-18z"/><path d="m31 12h2c0-5.514-4.486-10-10-10h-17v2h17c4.411 0 8 3.589 8 8z"/><path d="m16 6v2h6c2.206 0 4 1.794 4 4h2c0-3.309-2.691-6-6-6z"/><path d="m12 6h2v2h-2z"/><path d="m2 2h2v2h-2z"/><path d="m8 6h2v2h-2z"/><path d="m13.937 28.499 1.731 1.002c.893-1.543 2.553-2.501 4.332-2.501v-2c-2.491 0-4.814 1.341-6.063 3.499z"/><path d="m49 48h2v2h-2z"/></svg>